<svg xmlns="http://www.w3.org/2000/svg" width="1600" height="1000" viewBox="0 0 1600 1000">
  <rect width="1600" height="1000" fill="#F5F6F8"/>

  <text x="96" y="105" font-family="Georgia, 'Times New Roman', serif" font-size="48" font-weight="700" fill="#111111">Defense Palette Family</text>
  <text x="98" y="142" font-family="'Microsoft YaHei', 'Noto Sans CJK SC', Arial, sans-serif" font-size="20" fill="#565A60">A shared academic color system for defense templates.</text>

  <g transform="translate(96 205)">
    <rect x="0" y="0" width="1408" height="150" rx="10" fill="#FFFFFF" stroke="#D9C7CA"/>
    <rect x="0" y="0" width="350" height="150" rx="10" fill="#8B0012"/>
    <rect x="332" y="0" width="18" height="150" fill="#68000D"/>
    <text x="38" y="60" font-family="Georgia, 'Times New Roman', serif" font-size="32" font-weight="700" fill="#FFFFFF">Academic Red</text>
    <text x="40" y="96" font-family="'Microsoft YaHei', 'Noto Sans CJK SC', Arial, sans-serif" font-size="18" fill="#F8F2F3">#8B0012</text>

    <rect x="420" y="36" width="150" height="76" rx="8" fill="#8B0012"/>
    <rect x="612" y="36" width="150" height="76" rx="8" fill="#68000D"/>
    <rect x="804" y="36" width="150" height="76" rx="8" fill="#F8F2F3" stroke="#D9C7CA"/>
    <rect x="996" y="36" width="150" height="76" rx="8" fill="#D9C7CA"/>

    <text x="495" y="135" text-anchor="middle" font-family="'Microsoft YaHei', 'Noto Sans CJK SC', Arial, sans-serif" font-size="15" fill="#3B3D42">#8B0012</text>
    <text x="687" y="135" text-anchor="middle" font-family="'Microsoft YaHei', 'Noto Sans CJK SC', Arial, sans-serif" font-size="15" fill="#3B3D42">#68000D</text>
    <text x="879" y="135" text-anchor="middle" font-family="'Microsoft YaHei', 'Noto Sans CJK SC', Arial, sans-serif" font-size="15" fill="#3B3D42">#F8F2F3</text>
    <text x="1071" y="135" text-anchor="middle" font-family="'Microsoft YaHei', 'Noto Sans CJK SC', Arial, sans-serif" font-size="15" fill="#3B3D42">#D9C7CA</text>

    <circle cx="1285" cy="75" r="45" fill="#FFFFFF" stroke="#8B0012" stroke-width="4"/>
    <text x="1285" y="84" text-anchor="middle" font-family="Georgia, 'Times New Roman', serif" font-size="26" font-weight="700" fill="#3A0008">01</text>
  </g>

  <g transform="translate(96 395)">
    <rect x="0" y="0" width="1408" height="150" rx="10" fill="#FFFFFF" stroke="#C8D4E3"/>
    <rect x="0" y="0" width="350" height="150" rx="10" fill="#183A6A"/>
    <rect x="332" y="0" width="18" height="150" fill="#10284A"/>
    <text x="38" y="60" font-family="Georgia, 'Times New Roman', serif" font-size="32" font-weight="700" fill="#FFFFFF">Academic Blue</text>
    <text x="40" y="96" font-family="'Microsoft YaHei', 'Noto Sans CJK SC', Arial, sans-serif" font-size="18" fill="#F2F5FA">#183A6A</text>

    <rect x="420" y="36" width="150" height="76" rx="8" fill="#183A6A"/>
    <rect x="612" y="36" width="150" height="76" rx="8" fill="#10284A"/>
    <rect x="804" y="36" width="150" height="76" rx="8" fill="#F2F5FA" stroke="#C8D4E3"/>
    <rect x="996" y="36" width="150" height="76" rx="8" fill="#C8D4E3"/>

    <text x="495" y="135" text-anchor="middle" font-family="'Microsoft YaHei', 'Noto Sans CJK SC', Arial, sans-serif" font-size="15" fill="#3B3D42">#183A6A</text>
    <text x="687" y="135" text-anchor="middle" font-family="'Microsoft YaHei', 'Noto Sans CJK SC', Arial, sans-serif" font-size="15" fill="#3B3D42">#10284A</text>
    <text x="879" y="135" text-anchor="middle" font-family="'Microsoft YaHei', 'Noto Sans CJK SC', Arial, sans-serif" font-size="15" fill="#3B3D42">#F2F5FA</text>
    <text x="1071" y="135" text-anchor="middle" font-family="'Microsoft YaHei', 'Noto Sans CJK SC', Arial, sans-serif" font-size="15" fill="#3B3D42">#C8D4E3</text>

    <circle cx="1285" cy="75" r="45" fill="#FFFFFF" stroke="#183A6A" stroke-width="4"/>
    <text x="1285" y="84" text-anchor="middle" font-family="Georgia, 'Times New Roman', serif" font-size="26" font-weight="700" fill="#081B33">02</text>
  </g>

  <g transform="translate(96 585)">
    <rect x="0" y="0" width="1408" height="150" rx="10" fill="#FFFFFF" stroke="#D8C5DC"/>
    <rect x="0" y="0" width="350" height="150" rx="10" fill="#80308B"/>
    <rect x="332" y="0" width="18" height="150" fill="#5D2066"/>
    <text x="38" y="60" font-family="Georgia, 'Times New Roman', serif" font-size="32" font-weight="700" fill="#FFFFFF">Academic Purple</text>
    <text x="40" y="96" font-family="'Microsoft YaHei', 'Noto Sans CJK SC', Arial, sans-serif" font-size="18" fill="#F8F2F9">#80308B</text>

    <rect x="420" y="36" width="150" height="76" rx="8" fill="#80308B"/>
    <rect x="612" y="36" width="150" height="76" rx="8" fill="#5D2066"/>
    <rect x="804" y="36" width="150" height="76" rx="8" fill="#F8F2F9" stroke="#D8C5DC"/>
    <rect x="996" y="36" width="150" height="76" rx="8" fill="#D8C5DC"/>

    <text x="495" y="135" text-anchor="middle" font-family="'Microsoft YaHei', 'Noto Sans CJK SC', Arial, sans-serif" font-size="15" fill="#3B3D42">#80308B</text>
    <text x="687" y="135" text-anchor="middle" font-family="'Microsoft YaHei', 'Noto Sans CJK SC', Arial, sans-serif" font-size="15" fill="#3B3D42">#5D2066</text>
    <text x="879" y="135" text-anchor="middle" font-family="'Microsoft YaHei', 'Noto Sans CJK SC', Arial, sans-serif" font-size="15" fill="#3B3D42">#F8F2F9</text>
    <text x="1071" y="135" text-anchor="middle" font-family="'Microsoft YaHei', 'Noto Sans CJK SC', Arial, sans-serif" font-size="15" fill="#3B3D42">#D8C5DC</text>

    <circle cx="1285" cy="75" r="45" fill="#FFFFFF" stroke="#80308B" stroke-width="4"/>
    <text x="1285" y="84" text-anchor="middle" font-family="Georgia, 'Times New Roman', serif" font-size="26" font-weight="700" fill="#331038">03</text>
  </g>

  <g transform="translate(96 775)">
    <rect x="0" y="0" width="1408" height="150" rx="10" fill="#FFFFFF" stroke="#C4D8CD"/>
    <rect x="0" y="0" width="350" height="150" rx="10" fill="#016F35"/>
    <rect x="332" y="0" width="18" height="150" fill="#014B24"/>
    <text x="38" y="60" font-family="Georgia, 'Times New Roman', serif" font-size="32" font-weight="700" fill="#FFFFFF">Academic Green</text>
    <text x="40" y="96" font-family="'Microsoft YaHei', 'Noto Sans CJK SC', Arial, sans-serif" font-size="18" fill="#F1F7F4">#016F35</text>

    <rect x="420" y="36" width="150" height="76" rx="8" fill="#016F35"/>
    <rect x="612" y="36" width="150" height="76" rx="8" fill="#014B24"/>
    <rect x="804" y="36" width="150" height="76" rx="8" fill="#F1F7F4" stroke="#C4D8CD"/>
    <rect x="996" y="36" width="150" height="76" rx="8" fill="#C4D8CD"/>

    <text x="495" y="135" text-anchor="middle" font-family="'Microsoft YaHei', 'Noto Sans CJK SC', Arial, sans-serif" font-size="15" fill="#3B3D42">#016F35</text>
    <text x="687" y="135" text-anchor="middle" font-family="'Microsoft YaHei', 'Noto Sans CJK SC', Arial, sans-serif" font-size="15" fill="#3B3D42">#014B24</text>
    <text x="879" y="135" text-anchor="middle" font-family="'Microsoft YaHei', 'Noto Sans CJK SC', Arial, sans-serif" font-size="15" fill="#3B3D42">#F1F7F4</text>
    <text x="1071" y="135" text-anchor="middle" font-family="'Microsoft YaHei', 'Noto Sans CJK SC', Arial, sans-serif" font-size="15" fill="#3B3D42">#C4D8CD</text>

    <circle cx="1285" cy="75" r="45" fill="#FFFFFF" stroke="#016F35" stroke-width="4"/>
    <text x="1285" y="84" text-anchor="middle" font-family="Georgia, 'Times New Roman', serif" font-size="26" font-weight="700" fill="#002B15">04</text>
  </g>
</svg>
