<?xml version="1.0" encoding="UTF-8"?>
<svg xmlns="http://www.w3.org/2000/svg" viewBox="0 0 1280 720" data-style="guizang-style-b" data-page="cover">
  <rect width="1280" height="720" fill="#002FA7"/>
  <g id="swiss-dot-field" fill="#FFFFFF">
    <rect x="1000" y="80" width="10" height="10" fill-opacity="0.18"/><rect x="1032" y="80" width="10" height="10" fill-opacity="0.18"/><rect x="1064" y="80" width="10" height="10" fill-opacity="0.18"/><rect x="1096" y="80" width="10" height="10" fill-opacity="0.18"/>
    <rect x="1000" y="112" width="10" height="10" fill-opacity="0.18"/><rect x="1032" y="112" width="10" height="10" fill-opacity="0.18"/><rect x="1064" y="112" width="10" height="10" fill-opacity="0.18"/><rect x="1096" y="112" width="10" height="10" fill-opacity="0.18"/>
    <rect x="1000" y="144" width="10" height="10" fill-opacity="0.18"/><rect x="1032" y="144" width="10" height="10" fill-opacity="0.18"/><rect x="1064" y="144" width="10" height="10" fill-opacity="0.18"/><rect x="1096" y="144" width="10" height="10" fill-opacity="0.18"/>
  </g>
  <text x="64" y="62" fill="#FFFFFF" font-family="Consolas, JetBrains Mono, monospace" font-size="12" letter-spacing="3">{{META_LEFT}}</text>
  <text x="1216" y="62" text-anchor="end" fill="#FFFFFF" font-family="Consolas, JetBrains Mono, monospace" font-size="12" letter-spacing="3">{{META_RIGHT}}</text>
  <text x="64" y="348" fill="#FFFFFF" font-family="Helvetica Neue, Inter, Arial, sans-serif" font-size="104" font-weight="200">
    <tspan x="64" dy="0">{{TITLE}}</tspan>
    <tspan x="64" dy="104">{{TITLE_LINE_2}}</tspan>
  </text>
  <line x1="64" y1="544" x2="1216" y2="544" stroke="#FFFFFF" stroke-width="1"/>
  <text x="64" y="596" fill="#FFFFFF" font-family="Helvetica Neue, Inter, Arial, sans-serif" font-size="24" font-weight="300">{{SUBTITLE}}</text>
</svg>
