<?xml version="1.0" encoding="UTF-8"?>
<svg xmlns="http://www.w3.org/2000/svg" viewBox="0 0 1280 720" data-style="guizang-style-b" data-page="content">
  <rect width="1280" height="720" fill="#FAFAF8"/>
  <text x="64" y="60" fill="#737373" font-family="Consolas, JetBrains Mono, monospace" font-size="12" letter-spacing="4">{{KICKER}}</text>
  <text x="64" y="128" fill="#0A0A0A" font-family="Helvetica Neue, Inter, Arial, sans-serif" font-size="52" font-weight="300">{{PAGE_TITLE}}</text>
  <rect x="64" y="158" width="1152" height="1" fill="#D4D4D2"/>
  <g id="swiss-card-grid" font-family="Helvetica Neue, Inter, Arial, sans-serif">
    <rect x="64" y="212" width="264" height="250" fill="#F0F0EE"/>
    <rect x="352" y="212" width="264" height="250" fill="#F0F0EE"/>
    <rect x="640" y="212" width="264" height="250" fill="#002FA7"/>
    <rect x="928" y="212" width="264" height="250" fill="#F0F0EE"/>
    <text x="88" y="272" fill="#0A0A0A" font-size="24" font-weight="300">{{CARD_1}}</text>
    <text x="376" y="272" fill="#0A0A0A" font-size="24" font-weight="300">{{CARD_2}}</text>
    <text x="664" y="272" fill="#FFFFFF" font-size="24" font-weight="300">{{CARD_3}}</text>
    <text x="952" y="272" fill="#0A0A0A" font-size="24" font-weight="300">{{CARD_4}}</text>
    <line x1="88" y1="322" x2="304" y2="322" stroke="#D4D4D2"/>
    <line x1="376" y1="322" x2="592" y2="322" stroke="#D4D4D2"/>
    <line x1="664" y1="322" x2="880" y2="322" stroke="#FFFFFF"/>
    <line x1="952" y1="322" x2="1168" y2="322" stroke="#D4D4D2"/>
    <text x="88" y="376" fill="#737373" font-size="16">{{CARD_1_NOTE}}</text>
    <text x="376" y="376" fill="#737373" font-size="16">{{CARD_2_NOTE}}</text>
    <text x="664" y="376" fill="#FFFFFF" font-size="16">{{CARD_3_NOTE}}</text>
    <text x="952" y="376" fill="#737373" font-size="16">{{CARD_4_NOTE}}</text>
  </g>
  <rect x="64" y="548" width="1152" height="1" fill="#D4D4D2"/>
  <text x="1216" y="662" text-anchor="end" fill="#737373" font-family="Consolas, JetBrains Mono, monospace" font-size="12">{{PAGE_NUM}}</text>
</svg>
