<?xml version="1.0" encoding="UTF-8"?>
<svg xmlns="http://www.w3.org/2000/svg" viewBox="0 0 1280 720" data-style="guizang-style-b" data-layout="S09" data-layout-name="Dot Matrix Statement">
  <rect id="background" width="1280" height="720" fill="#FAFAF8"/>
  <text id="chrome-left" x="64" y="56" fill="#737373" font-family="Consolas, JetBrains Mono, monospace" font-size="12" letter-spacing="3">{{KICKER}}</text>
  <text id="chrome-right" x="1216" y="56" text-anchor="end" fill="#737373" font-family="Consolas, JetBrains Mono, monospace" font-size="12">S09 · {{PAGE_NUM}}</text>
  <rect id="chrome-rule" x="64" y="84" width="1152" height="1" fill="#D4D4D2"/>
  <rect id="chrome-accent" x="64" y="84" width="112" height="3" fill="#002FA7"/>
  <text id="dot-statement" x="64" y="310" fill="#0A0A0A" font-family="Helvetica Neue, Inter, Arial, Microsoft YaHei, sans-serif" font-size="82" font-weight="200"><tspan x="64" dy="0">{{STATEMENT}}</tspan><tspan x="64" dy="88">{{STATEMENT_LINE_2}}</tspan></text>
  <g id="dot-matrix"><rect x="920" y="180" width="9" height="9" fill="#002FA7"/><rect x="948" y="180" width="9" height="9" fill="#002FA7"/><rect x="976" y="180" width="9" height="9" fill="#002FA7"/><rect x="1004" y="180" width="9" height="9" fill="#002FA7"/><rect x="1032" y="180" width="9" height="9" fill="#002FA7"/><rect x="1060" y="180" width="9" height="9" fill="#002FA7"/><rect x="1088" y="180" width="9" height="9" fill="#002FA7"/><rect x="1116" y="180" width="9" height="9" fill="#002FA7"/><rect x="1144" y="180" width="9" height="9" fill="#002FA7"/><rect x="920" y="208" width="9" height="9" fill="#002FA7"/><rect x="948" y="208" width="9" height="9" fill="#002FA7"/><rect x="976" y="208" width="9" height="9" fill="#002FA7"/><rect x="1004" y="208" width="9" height="9" fill="#002FA7"/><rect x="1032" y="208" width="9" height="9" fill="#002FA7"/><rect x="1060" y="208" width="9" height="9" fill="#002FA7"/><rect x="1088" y="208" width="9" height="9" fill="#002FA7"/><rect x="1116" y="208" width="9" height="9" fill="#002FA7"/><rect x="1144" y="208" width="9" height="9" fill="#002FA7"/><rect x="920" y="236" width="9" height="9" fill="#002FA7"/><rect x="948" y="236" width="9" height="9" fill="#002FA7"/><rect x="976" y="236" width="9" height="9" fill="#002FA7"/><rect x="1004" y="236" width="9" height="9" fill="#002FA7"/><rect x="1032" y="236" width="9" height="9" fill="#002FA7"/><rect x="1060" y="236" width="9" height="9" fill="#002FA7"/><rect x="1088" y="236" width="9" height="9" fill="#002FA7"/><rect x="1116" y="236" width="9" height="9" fill="#002FA7"/><rect x="1144" y="236" width="9" height="9" fill="#002FA7"/><rect x="920" y="264" width="9" height="9" fill="#002FA7"/><rect x="948" y="264" width="9" height="9" fill="#002FA7"/><rect x="976" y="264" width="9" height="9" fill="#002FA7"/><rect x="1004" y="264" width="9" height="9" fill="#002FA7"/><rect x="1032" y="264" width="9" height="9" fill="#002FA7"/><rect x="1060" y="264" width="9" height="9" fill="#002FA7"/><rect x="1088" y="264" width="9" height="9" fill="#002FA7"/><rect x="1116" y="264" width="9" height="9" fill="#002FA7"/><rect x="1144" y="264" width="9" height="9" fill="#002FA7"/><rect x="920" y="292" width="9" height="9" fill="#002FA7"/><rect x="948" y="292" width="9" height="9" fill="#002FA7"/><rect x="976" y="292" width="9" height="9" fill="#002FA7"/><rect x="1004" y="292" width="9" height="9" fill="#002FA7"/><rect x="1032" y="292" width="9" height="9" fill="#002FA7"/><rect x="1060" y="292" width="9" height="9" fill="#002FA7"/><rect x="1088" y="292" width="9" height="9" fill="#002FA7"/><rect x="1116" y="292" width="9" height="9" fill="#002FA7"/><rect x="1144" y="292" width="9" height="9" fill="#002FA7"/><rect x="920" y="320" width="9" height="9" fill="#002FA7"/><rect x="948" y="320" width="9" height="9" fill="#002FA7"/><rect x="976" y="320" width="9" height="9" fill="#002FA7"/><rect x="1004" y="320" width="9" height="9" fill="#002FA7"/><rect x="1032" y="320" width="9" height="9" fill="#002FA7"/><rect x="1060" y="320" width="9" height="9" fill="#002FA7"/><rect x="1088" y="320" width="9" height="9" fill="#002FA7"/><rect x="1116" y="320" width="9" height="9" fill="#002FA7"/><rect x="1144" y="320" width="9" height="9" fill="#002FA7"/></g>
</svg>
