<?xml version="1.0" encoding="UTF-8"?>
<svg xmlns="http://www.w3.org/2000/svg" viewBox="0 0 1280 720" data-style="guizang-style-b" data-layout="S15" data-layout-name="Matrix + Hero Stat">
  <rect id="background" width="1280" height="720" fill="#FAFAF8"/>
  <text id="chrome-left" x="64" y="56" fill="#737373" font-family="Consolas, JetBrains Mono, monospace" font-size="12" letter-spacing="3">{{KICKER}}</text>
  <text id="chrome-right" x="1216" y="56" text-anchor="end" fill="#737373" font-family="Consolas, JetBrains Mono, monospace" font-size="12">S15 · {{PAGE_NUM}}</text>
  <rect id="chrome-rule" x="64" y="84" width="1152" height="1" fill="#D4D4D2"/>
  <rect id="chrome-accent" x="64" y="84" width="112" height="3" fill="#002FA7"/>
  <text id="page-title" x="64" y="140" fill="#0A0A0A" font-family="Helvetica Neue, Inter, Arial, Microsoft YaHei, sans-serif" font-size="48" font-weight="300">{{PAGE_TITLE}}</text>
  <g id="matrix-grid"><rect x="64" y="220" width="160" height="52" fill="#F0F0EE" stroke="#D4D4D2"/><text x="78" y="254" fill="#0A0A0A" font-family="Consolas, JetBrains Mono, monospace" font-size="11">{{M1}}</text><rect x="256" y="220" width="160" height="52" fill="#F0F0EE" stroke="#D4D4D2"/><text x="270" y="254" fill="#0A0A0A" font-family="Consolas, JetBrains Mono, monospace" font-size="11">{{M2}}</text><rect x="448" y="220" width="160" height="52" fill="#F0F0EE" stroke="#D4D4D2"/><text x="462" y="254" fill="#0A0A0A" font-family="Consolas, JetBrains Mono, monospace" font-size="11">{{M3}}</text><rect x="640" y="220" width="160" height="52" fill="#F0F0EE" stroke="#D4D4D2"/><text x="654" y="254" fill="#0A0A0A" font-family="Consolas, JetBrains Mono, monospace" font-size="11">{{M4}}</text><rect x="832" y="220" width="160" height="52" fill="#F0F0EE" stroke="#D4D4D2"/><text x="846" y="254" fill="#0A0A0A" font-family="Consolas, JetBrains Mono, monospace" font-size="11">{{M5}}</text><rect x="1024" y="220" width="160" height="52" fill="#F0F0EE" stroke="#D4D4D2"/><text x="1038" y="254" fill="#0A0A0A" font-family="Consolas, JetBrains Mono, monospace" font-size="11">{{M6}}</text><rect x="64" y="298" width="160" height="52" fill="#F0F0EE" stroke="#D4D4D2"/><text x="78" y="332" fill="#0A0A0A" font-family="Consolas, JetBrains Mono, monospace" font-size="11">{{M7}}</text><rect x="256" y="298" width="160" height="52" fill="#F0F0EE" stroke="#D4D4D2"/><text x="270" y="332" fill="#0A0A0A" font-family="Consolas, JetBrains Mono, monospace" font-size="11">{{M8}}</text><rect x="448" y="298" width="160" height="52" fill="#F0F0EE" stroke="#D4D4D2"/><text x="462" y="332" fill="#0A0A0A" font-family="Consolas, JetBrains Mono, monospace" font-size="11">{{M9}}</text><rect x="640" y="298" width="160" height="52" fill="#F0F0EE" stroke="#D4D4D2"/><text x="654" y="332" fill="#0A0A0A" font-family="Consolas, JetBrains Mono, monospace" font-size="11">{{M10}}</text><rect x="832" y="298" width="160" height="52" fill="#F0F0EE" stroke="#D4D4D2"/><text x="846" y="332" fill="#0A0A0A" font-family="Consolas, JetBrains Mono, monospace" font-size="11">{{M11}}</text><rect x="1024" y="298" width="160" height="52" fill="#F0F0EE" stroke="#D4D4D2"/><text x="1038" y="332" fill="#0A0A0A" font-family="Consolas, JetBrains Mono, monospace" font-size="11">{{M12}}</text></g>  <text id="hero-stat" x="64" y="590" fill="#002FA7" font-family="Helvetica Neue, Inter, Arial, Microsoft YaHei, sans-serif" font-size="112" font-weight="200">{{HERO_STAT}}</text>
</svg>
