<?xml version="1.0" encoding="UTF-8"?>
<svg xmlns="http://www.w3.org/2000/svg" viewBox="0 0 1280 720" data-style="guizang-style-b" data-layout="S21" data-layout-name="Tech Spec Sheet">
  <rect id="background" width="1280" height="720" fill="#FAFAF8"/>
  <text id="chrome-left" x="64" y="56" fill="#737373" font-family="Consolas, JetBrains Mono, monospace" font-size="12" letter-spacing="3">{{KICKER}}</text>
  <text id="chrome-right" x="1216" y="56" text-anchor="end" fill="#737373" font-family="Consolas, JetBrains Mono, monospace" font-size="12">S21 · {{PAGE_NUM}}</text>
  <rect id="chrome-rule" x="64" y="84" width="1152" height="1" fill="#D4D4D2"/>
  <rect id="chrome-accent" x="64" y="84" width="112" height="3" fill="#002FA7"/>
  <text id="page-title" x="64" y="176" fill="#0A0A0A" font-family="Helvetica Neue, Inter, Arial, Microsoft YaHei, sans-serif" font-size="60" font-weight="300">{{PAGE_TITLE}}</text>
  <g id="spec-kpis"><text x="64" y="316" fill="#002FA7" font-family="Helvetica Neue, Inter, Arial, Microsoft YaHei, sans-serif" font-size="64" font-weight="200">{{KPI_1}}</text><text x="64" y="408" fill="#002FA7" font-family="Helvetica Neue, Inter, Arial, Microsoft YaHei, sans-serif" font-size="64" font-weight="200">{{KPI_2}}</text><text x="64" y="500" fill="#002FA7" font-family="Helvetica Neue, Inter, Arial, Microsoft YaHei, sans-serif" font-size="64" font-weight="200">{{KPI_3}}</text></g>
  <g id="line-matrix"><rect x="918" y="274" width="34" height="20" fill="#002FA7"/><rect x="974" y="274" width="34" height="20" fill="#D4D4D2"/><rect x="1030" y="274" width="34" height="20" fill="#D4D4D2"/><rect x="1086" y="274" width="34" height="20" fill="#002FA7"/><rect x="918" y="314" width="34" height="20" fill="#D4D4D2"/><rect x="974" y="314" width="34" height="20" fill="#D4D4D2"/><rect x="1030" y="314" width="34" height="20" fill="#002FA7"/><rect x="1086" y="314" width="34" height="20" fill="#D4D4D2"/><rect x="918" y="354" width="34" height="20" fill="#D4D4D2"/><rect x="974" y="354" width="34" height="20" fill="#002FA7"/><rect x="1030" y="354" width="34" height="20" fill="#D4D4D2"/><rect x="1086" y="354" width="34" height="20" fill="#D4D4D2"/><rect x="918" y="394" width="34" height="20" fill="#002FA7"/><rect x="974" y="394" width="34" height="20" fill="#D4D4D2"/><rect x="1030" y="394" width="34" height="20" fill="#D4D4D2"/><rect x="1086" y="394" width="34" height="20" fill="#002FA7"/><rect x="918" y="434" width="34" height="20" fill="#D4D4D2"/><rect x="974" y="434" width="34" height="20" fill="#D4D4D2"/><rect x="1030" y="434" width="34" height="20" fill="#002FA7"/><rect x="1086" y="434" width="34" height="20" fill="#D4D4D2"/></g>
</svg>
