<svg xmlns="http://www.w3.org/2000/svg" width="1600" height="900" viewBox="0 0 1600 900" role="img" aria-label="拖入一个 PDF 后用一句话生成 EasySlides PPT 的示例">
  <rect width="1600" height="900" fill="#f7f7f6"/>
  <rect x="0" y="0" width="1600" height="58" fill="#ffffff" stroke="#e1e1e1"/>
  <circle cx="28" cy="28" r="11" fill="#2aa8ff"/>
  <path d="M21 31c9 4 17 3 24-5" fill="none" stroke="#111827" stroke-width="4" stroke-linecap="round"/>
  <text x="82" y="36" font-family="Microsoft YaHei, PingFang SC, sans-serif" font-size="18" font-weight="700" fill="#161616">[生物多样性与生态系统多功能性_进展与展望_徐炜.pdf] / EasySlides</text>
  <rect x="1185" y="14" width="44" height="32" rx="8" fill="#fff7db" stroke="#e4d7b8"/>
  <rect x="1265" y="16" width="32" height="28" rx="4" fill="#f8fafc" stroke="#d8d8d8"/>
  <rect x="1360" y="16" width="32" height="28" rx="4" fill="#f8fafc" stroke="#d8d8d8"/>
  <rect x="432" y="100" width="736" height="82" rx="18" fill="#f3f3f3" stroke="#d7d7d7" stroke-width="1.5"/>
  <rect x="468" y="121" width="398" height="27" rx="14" fill="#aeeaff"/>
  <text x="485" y="141" font-family="Microsoft YaHei, PingFang SC, sans-serif" font-size="18" font-weight="700" fill="#08a8ee">📄 生物多样性与生态系统多功能性_进展与展望_徐炜.pdf</text>
  <text x="890" y="145" font-family="Microsoft YaHei, PingFang SC, sans-serif" font-size="22" fill="#222">使用 easyslides 的</text>
  <text x="455" y="171" font-family="Microsoft YaHei, PingFang SC, sans-serif" font-size="22" fill="#222">literature_minimal 模板帮我把这篇论文制作成 PPT</text>
  <text x="232" y="312" font-family="Microsoft YaHei, PingFang SC, sans-serif" font-size="20" fill="#8b8b8b">已工作 8分 9秒 〉</text>
  <line x1="232" y1="340" x2="1368" y2="340" stroke="#e6e6e6"/>
  <text x="232" y="392" font-family="Microsoft YaHei, PingFang SC, sans-serif" font-size="22" fill="#2a2a2a">PPT 已成功生成！文件路径：</text>
  <rect x="232" y="426" width="1136" height="104" rx="16" fill="#ffffff" stroke="#dedede" stroke-width="1.5"/>
  <text x="260" y="462" font-family="Microsoft YaHei, PingFang SC, sans-serif" font-size="18" fill="#1d1d1f">📄 text</text>
  <text x="260" y="506" font-family="Consolas, JetBrains Mono, monospace" font-size="20" fill="#0f172a">projects/biodiversity_emf_ppt169_20260521/exports/biodiversity_emf_20260521_001037.pptx</text>
  <text x="232" y="586" font-family="Microsoft YaHei, PingFang SC, sans-serif" font-size="24" font-weight="700" fill="#242424">共 21 页幻灯片，结构如下：</text>
  <rect x="232" y="622" width="1136" height="206" rx="14" fill="#ffffff" stroke="#dedede" stroke-width="1.5"/>
  <rect x="232" y="622" width="1136" height="52" rx="14" fill="#fbfbfb"/>
  <line x1="232" y1="674" x2="1368" y2="674" stroke="#e6e6e6"/>
  <text x="258" y="660" font-family="Microsoft YaHei, PingFang SC, sans-serif" font-size="20" fill="#9b9b9b">页码</text>
  <text x="370" y="660" font-family="Microsoft YaHei, PingFang SC, sans-serif" font-size="20" fill="#9b9b9b">类型</text>
  <text x="520" y="660" font-family="Microsoft YaHei, PingFang SC, sans-serif" font-size="20" fill="#9b9b9b">内容</text>
  <text x="258" y="710" font-family="Microsoft YaHei, PingFang SC, sans-serif" font-size="20" fill="#2a2a2a">1</text>
  <text x="370" y="710" font-family="Microsoft YaHei, PingFang SC, sans-serif" font-size="20" fill="#2a2a2a">封面</text>
  <text x="520" y="710" font-family="Microsoft YaHei, PingFang SC, sans-serif" font-size="20" fill="#2a2a2a">生物多样性与生态系统多功能性：进展与展望</text>
  <line x1="232" y1="730" x2="1368" y2="730" stroke="#eeeeee"/>
  <text x="258" y="766" font-family="Microsoft YaHei, PingFang SC, sans-serif" font-size="20" fill="#2a2a2a">2</text>
  <text x="370" y="766" font-family="Microsoft YaHei, PingFang SC, sans-serif" font-size="20" fill="#2a2a2a">目录</text>
  <text x="520" y="766" font-family="Microsoft YaHei, PingFang SC, sans-serif" font-size="20" fill="#2a2a2a">六部分概览</text>
  <line x1="232" y1="786" x2="1368" y2="786" stroke="#eeeeee"/>
  <text x="258" y="822" font-family="Microsoft YaHei, PingFang SC, sans-serif" font-size="20" fill="#2a2a2a">3-6</text>
  <text x="370" y="822" font-family="Microsoft YaHei, PingFang SC, sans-serif" font-size="20" fill="#2a2a2a">第一章</text>
  <text x="520" y="822" font-family="Microsoft YaHei, PingFang SC, sans-serif" font-size="20" font-weight="700" fill="#2a2a2a">背景与概念</text>
  <rect x="232" y="850" width="1136" height="2" fill="#18b8ff"/>
</svg>
