<?xml version="1.0" encoding="UTF-8"?>
<svg xmlns="http://www.w3.org/2000/svg" viewBox="0 0 1280 720">
  <rect width="1280" height="720" fill="#FFFFFF"/>
  <g id="corner-dots" fill="#FBD7B3">
    <circle cx="12" cy="24" r="4" opacity="0.8"/><circle cx="34" cy="24" r="4" opacity="0.8"/><circle cx="56" cy="24" r="4" opacity="0.8"/>
    <circle cx="12" cy="46" r="4" opacity="0.8"/><circle cx="34" cy="46" r="4" opacity="0.8"/><circle cx="56" cy="46" r="4" opacity="0.8"/>
    <circle cx="12" cy="68" r="4" opacity="0.8"/><circle cx="34" cy="68" r="4" opacity="0.8"/><circle cx="56" cy="68" r="4" opacity="0.8"/>
    <circle cx="1196" cy="636" r="4" opacity="0.8"/><circle cx="1218" cy="636" r="4" opacity="0.8"/><circle cx="1240" cy="636" r="4" opacity="0.8"/>
    <circle cx="1196" cy="658" r="4" opacity="0.8"/><circle cx="1218" cy="658" r="4" opacity="0.8"/><circle cx="1240" cy="658" r="4" opacity="0.8"/>
    <circle cx="1196" cy="680" r="4" opacity="0.8"/><circle cx="1218" cy="680" r="4" opacity="0.8"/><circle cx="1240" cy="680" r="4" opacity="0.8"/>
  </g>
  <text x="640" y="64" text-anchor="middle" fill="#000000" font-family="Microsoft YaHei, еЊЃиљѓйЫЕйїС, Arial, sans-serif" font-size="18" font-weight="700">{{BRAND}}</text>
  <rect x="0" y="192" width="1280" height="259" fill="#8B0012"/>
  <text x="640" y="306" text-anchor="middle" fill="#FFFFFF" font-family="Microsoft YaHei, еЊЃиљѓйЫЕйїС, Arial, sans-serif" font-size="46" font-weight="700">{{TITLE}}</text>
  <text x="640" y="356" text-anchor="middle" fill="#FFFFFF" font-family="Microsoft YaHei, еЊЃиљѓйЫЕйїС, Arial, sans-serif" font-size="18">{{SUBTITLE}}</text>
  <rect x="364" y="396" width="552" height="1.5" fill="#E7E6E6"/>
  <text x="640" y="436" text-anchor="middle" fill="#000000" font-family="Microsoft YaHei, еЊЃиљѓйЫЕйїС, Arial, sans-serif" font-size="13">{{META}}</text>
  <g id="cover-meta" font-family="Microsoft YaHei, еЊЃиљѓйЫЕйїС, Arial, sans-serif" font-size="15" fill="#000000">
    <circle cx="190" cy="587" r="8" fill="#8B0012"/>
    <text x="214" y="592">{{RESPONDENT}}</text>
    <circle cx="542" cy="587" r="8" fill="#8B0012"/>
    <text x="565" y="592">{{ADVISOR}}</text>
    <circle cx="908" cy="587" r="8" fill="#8B0012"/>
    <text x="930" y="592">{{DATE}}</text>
  </g>
</svg>
