<?xml version="1.0" encoding="UTF-8"?>
<svg xmlns="http://www.w3.org/2000/svg" viewBox="0 0 1280 720">
  <rect width="1280" height="720" fill="#FFFFFF"/>
  <text x="54" y="58" fill="#000000" font-family="Microsoft YaHei, 微软雅黑, Arial, sans-serif" font-size="18" font-weight="700">{{BRAND}}</text>
  <g id="corner-dots" fill="#FBD7B3">
    <circle cx="1200" cy="24" r="4" opacity="0.8"/><circle cx="1222" cy="24" r="4" opacity="0.8"/><circle cx="1244" cy="24" r="4" opacity="0.8"/>
    <circle cx="1200" cy="46" r="4" opacity="0.8"/><circle cx="1222" cy="46" r="4" opacity="0.8"/><circle cx="1244" cy="46" r="4" opacity="0.8"/>
    <circle cx="1200" cy="68" r="4" opacity="0.8"/><circle cx="1222" cy="68" r="4" opacity="0.8"/><circle cx="1244" cy="68" r="4" opacity="0.8"/>
    <circle cx="12" cy="636" r="4" opacity="0.8"/><circle cx="34" cy="636" r="4" opacity="0.8"/><circle cx="56" cy="636" r="4" opacity="0.8"/>
    <circle cx="12" cy="658" r="4" opacity="0.8"/><circle cx="34" cy="658" r="4" opacity="0.8"/><circle cx="56" cy="658" r="4" opacity="0.8"/>
    <circle cx="12" cy="680" r="4" opacity="0.8"/><circle cx="34" cy="680" r="4" opacity="0.8"/><circle cx="56" cy="680" r="4" opacity="0.8"/>
  </g>
  <rect x="0" y="233" width="507" height="255" fill="#8B0012"/>
  <polygon points="480,344 523,360 480,376" fill="#8B0012"/>
  <text x="253" y="352" text-anchor="middle" fill="#FFFFFF" font-family="Microsoft YaHei, 微软雅黑, Arial, sans-serif" font-size="58" font-weight="700">{{TOC_TITLE}}</text>
  <text x="253" y="424" text-anchor="middle" fill="#FFFFFF" font-family="Microsoft YaHei Light, Microsoft YaHei, 微软雅黑, Arial, sans-serif" font-size="19" letter-spacing="3">{{TOC_SUBTITLE}}</text>
  <g id="toc-items" font-family="Microsoft YaHei, 微软雅黑, Arial, sans-serif">
    <text x="704" y="154" fill="#8B0012" font-size="38" font-weight="700">01</text><rect x="765" y="106" width="2" height="60" fill="#8B0012"/><text x="782" y="146" fill="#000000" font-size="27" font-weight="700">{{ITEM_1}}</text><text x="782" y="184" fill="#000000" font-size="15">{{ITEM_1_EN}}</text>
    <text x="704" y="266" fill="#8B0012" font-size="38" font-weight="700">02</text><rect x="765" y="218" width="2" height="60" fill="#8B0012"/><text x="782" y="258" fill="#000000" font-size="27" font-weight="700">{{ITEM_2}}</text><text x="782" y="296" fill="#000000" font-size="15">{{ITEM_2_EN}}</text>
    <text x="704" y="378" fill="#8B0012" font-size="38" font-weight="700">03</text><rect x="765" y="330" width="2" height="60" fill="#8B0012"/><text x="782" y="370" fill="#000000" font-size="27" font-weight="700">{{ITEM_3}}</text><text x="782" y="408" fill="#000000" font-size="15">{{ITEM_3_EN}}</text>
    <text x="704" y="490" fill="#8B0012" font-size="38" font-weight="700">04</text><rect x="765" y="442" width="2" height="60" fill="#8B0012"/><text x="782" y="482" fill="#000000" font-size="27" font-weight="700">{{ITEM_4}}</text><text x="782" y="520" fill="#000000" font-size="15">{{ITEM_4_EN}}</text>
    <text x="704" y="602" fill="#8B0012" font-size="38" font-weight="700">05</text><rect x="765" y="554" width="2" height="60" fill="#8B0012"/><text x="782" y="594" fill="#000000" font-size="27" font-weight="700">{{ITEM_5}}</text><text x="782" y="632" fill="#000000" font-size="15">{{ITEM_5_EN}}</text>
  </g>
</svg>
