<?xml version="1.0" encoding="UTF-8"?>
<svg xmlns="http://www.w3.org/2000/svg" viewBox="0 0 1280 720">
  <rect width="1280" height="720" fill="#FFFFFF"/>
  <text x="54" y="58" fill="#000000" font-family="Microsoft YaHei, еЊЃиљѓйЫЕйїС, Arial, sans-serif" font-size="18" font-weight="700">{{BRAND}}</text>
  <g id="corner-dots" fill="#FBD7B3">
    <circle cx="1200" cy="24" r="4" opacity="0.8"/><circle cx="1222" cy="24" r="4" opacity="0.8"/><circle cx="1244" cy="24" r="4" opacity="0.8"/>
    <circle cx="1200" cy="46" r="4" opacity="0.8"/><circle cx="1222" cy="46" r="4" opacity="0.8"/><circle cx="1244" cy="46" r="4" opacity="0.8"/>
    <circle cx="1200" cy="68" r="4" opacity="0.8"/><circle cx="1222" cy="68" r="4" opacity="0.8"/><circle cx="1244" cy="68" r="4" opacity="0.8"/>
    <circle cx="12" cy="636" r="4" opacity="0.8"/><circle cx="34" cy="636" r="4" opacity="0.8"/><circle cx="56" cy="636" r="4" opacity="0.8"/>
    <circle cx="12" cy="658" r="4" opacity="0.8"/><circle cx="34" cy="658" r="4" opacity="0.8"/><circle cx="56" cy="658" r="4" opacity="0.8"/>
    <circle cx="12" cy="680" r="4" opacity="0.8"/><circle cx="34" cy="680" r="4" opacity="0.8"/><circle cx="56" cy="680" r="4" opacity="0.8"/>
  </g>
  <rect x="0" y="192" width="1280" height="259" fill="#8B0012"/>
  <text x="443" y="394" text-anchor="middle" fill="#FFFFFF" opacity="0.14" font-family="Microsoft YaHei, еЊЃиљѓйЫЕйїС, Arial, sans-serif" font-size="220" font-weight="700">{{SECTION_NUMBER}}</text>
  <text x="456" y="392" text-anchor="middle" fill="#FFFFFF" font-family="Microsoft YaHei, еЊЃиљѓйЫЕйїС, Arial, sans-serif" font-size="92" font-weight="700">{{SECTION_NUMBER}}</text>
  <text x="456" y="424" text-anchor="middle" fill="#FFFFFF" font-family="Microsoft YaHei Light, Microsoft YaHei, еЊЃиљѓйЫЕйїС, Arial, sans-serif" font-size="19" letter-spacing="2">{{PART_LABEL}}</text>
  <text x="618" y="344" fill="#FFFFFF" font-family="Microsoft YaHei, еЊЃиљѓйЫЕйїС, Arial, sans-serif" font-size="42" font-weight="700">{{SECTION_TITLE}}</text>
  <text x="624" y="396" fill="#FFFFFF" font-family="Microsoft YaHei Light, Microsoft YaHei, еЊЃиљѓйЫЕйїС, Arial, sans-serif" font-size="15">{{SECTION_SUBTITLE}}</text>
  <g id="mortarboard" transform="translate(1066 564)" fill="#8B0012" stroke="#8B0012">
    <path d="M0 38 L78 0 L156 38 L78 76 Z"/>
    <path d="M38 54 L38 94 C62 112 94 112 118 94 L118 54 L78 73 Z" fill="#68000E" stroke="none"/>
    <line x1="126" y1="44" x2="126" y2="92" stroke="#8B0012" stroke-width="6"/>
  </g>
</svg>
