<?xml version="1.0" encoding="UTF-8"?>
<svg xmlns="http://www.w3.org/2000/svg" viewBox="0 0 1280 720">
  <rect width="1280" height="720" fill="#FFFFFF"/>
  <rect x="0" y="0" width="291" height="720" fill="#F9F9F9"/>
  <rect x="0" y="159" width="291" height="65" fill="#8B0012"/>
  <text x="40" y="58" fill="#000000" font-family="Microsoft YaHei, еЊЃиљѓйЫЕйїС, Arial, sans-serif" font-size="18" font-weight="700">{{BRAND}}</text>
  <text x="40" y="198" fill="#FFFFFF" font-family="Microsoft YaHei, еЊЃиљѓйЫЕйїС, Arial, sans-serif" font-size="13" font-weight="700">{{ACTIVE_SECTION}}</text>
  <g id="nav-items" font-family="Microsoft YaHei, еЊЃиљѓйЫЕйїС, Arial, sans-serif" font-size="13" fill="#000000">
    <circle cx="60" cy="254" r="6" fill="#8B0012"/>
    <text x="78" y="259">{{NAV_ITEM_1}}</text>
    <circle cx="60" cy="341" r="6" fill="#8B0012"/>
    <text x="78" y="346">{{NAV_ITEM_2}}</text>
    <circle cx="60" cy="428" r="6" fill="#8B0012"/>
    <text x="78" y="433">{{NAV_ITEM_3}}</text>
    <circle cx="60" cy="515" r="6" fill="#8B0012"/>
    <text x="78" y="520">{{NAV_ITEM_4}}</text>
  </g>
  <rect x="336" y="98" width="12" height="38" fill="#8B0012"/>
  <text x="366" y="129" fill="#000000" font-family="Microsoft YaHei, еЊЃиљѓйЫЕйїС, Arial, sans-serif" font-size="24" font-weight="700">{{PAGE_TITLE}}</text>
  <rect x="336" y="170" width="760" height="350" rx="0" fill="#F9F9F9"/>
  <rect x="348" y="158" width="760" height="350" rx="0" fill="#FFFFFF" stroke="#E7E6E6" stroke-width="1.5"/>
  <rect x="348" y="158" width="760" height="72" fill="#8B0012"/>
  <text x="384" y="205" fill="#FFFFFF" font-family="Microsoft YaHei, еЊЃиљѓйЫЕйїС, Arial, sans-serif" font-size="20" font-weight="700">{{CARD_TITLE}}</text>
  <text x="384" y="282" fill="#000000" font-family="Microsoft YaHei, еЊЃиљѓйЫЕйїС, Arial, sans-serif" font-size="16">
    <tspan x="384" dy="0">{{BODY_LINE_1}}</tspan>
    <tspan x="384" dy="34">{{BODY_LINE_2}}</tspan>
    <tspan x="384" dy="34">{{BODY_LINE_3}}</tspan>
  </text>
  <rect x="1128" y="170" width="74" height="74" fill="#FFFFFF" stroke="#E7E6E6"/>
  <text x="1165" y="214" text-anchor="middle" fill="#8B0012" font-family="Microsoft YaHei, еЊЃиљѓйЫЕйїС, Arial, sans-serif" font-size="20" font-weight="700">{{NO}}</text>
</svg>
